<svg width="40" height="40" viewBox="0 0 40 40" fill="none" xmlns="http://www.w3.org/2000/svg">
<g clip-path="url(#clip0_150_2518)">
<path d="M30.9825 0H9.0175C4.03727 0 0 4.03727 0 9.0175V30.9825C0 35.9627 4.03727 40 9.0175 40H30.9825C35.9627 40 40 35.9627 40 30.9825V9.0175C40 4.03727 35.9627 0 30.9825 0Z" fill="#06C755"/>
<path d="M33.3325 18.115C33.3325 12.1475 27.35 7.29248 19.9962 7.29248C12.6425 7.29248 6.65997 12.1475 6.65997 18.115C6.65997 23.465 11.405 27.945 17.8137 28.7925C18.2475 28.8862 18.8387 29.0787 18.9887 29.45C19.1237 29.7875 19.0762 30.315 19.0325 30.6562C19.0325 30.6562 18.8762 31.5975 18.8425 31.7975C18.7837 32.135 18.575 33.1162 19.9975 32.5162C21.4212 31.9162 27.6775 27.9937 30.475 24.7737C32.4075 22.6537 33.3337 20.5037 33.3337 18.115H33.3325Z" fill="white"/>
<path d="M28.895 21.5612H25.1487C25.0075 21.5612 24.8937 21.4475 24.8937 21.3062V21.3025V15.4925V15.4862C24.8937 15.345 25.0075 15.2312 25.1487 15.2312H28.895C29.035 15.2312 29.15 15.3462 29.15 15.4862V16.4325C29.15 16.5737 29.0362 16.6875 28.895 16.6875H26.3487V17.67H28.895C29.035 17.67 29.15 17.785 29.15 17.925V18.8712C29.15 19.0125 29.0362 19.1262 28.895 19.1262H26.3487V20.1087H28.895C29.035 20.1087 29.15 20.2237 29.15 20.3637V21.31C29.15 21.4512 29.0362 21.565 28.895 21.565V21.5612Z" fill="#06C755"/>
<path d="M15.0363 21.5612C15.1763 21.5612 15.2913 21.4475 15.2913 21.3062V20.36C15.2913 20.22 15.1763 20.105 15.0363 20.105H12.49V15.485C12.49 15.345 12.375 15.23 12.235 15.23H11.2888C11.1475 15.23 11.0338 15.3437 11.0338 15.485V21.3012V21.3062C11.0338 21.4475 11.1475 21.5612 11.2888 21.5612H15.035H15.0363Z" fill="#06C755"/>
<path d="M17.2912 15.2312H16.3462C16.2054 15.2312 16.0912 15.3454 16.0912 15.4862V21.3062C16.0912 21.447 16.2054 21.5612 16.3462 21.5612H17.2912C17.4321 21.5612 17.5462 21.447 17.5462 21.3062V15.4862C17.5462 15.3454 17.4321 15.2312 17.2912 15.2312Z" fill="#06C755"/>
<path d="M23.73 15.2312H22.7837C22.6425 15.2312 22.5287 15.345 22.5287 15.4862V18.9425L19.8662 15.3462C19.86 15.3375 19.8525 15.3287 19.8462 15.32C19.8462 15.32 19.8462 15.32 19.845 15.3187C19.84 15.3137 19.835 15.3075 19.83 15.3025C19.8287 15.3012 19.8262 15.3 19.825 15.2987C19.82 15.295 19.8162 15.2912 19.8112 15.2875C19.8087 15.2862 19.8062 15.2837 19.8037 15.2825C19.8 15.2787 19.795 15.2762 19.79 15.2737C19.7875 15.2725 19.785 15.27 19.7825 15.2687C19.7775 15.2662 19.7737 15.2637 19.7687 15.2612C19.7662 15.26 19.7637 15.2587 19.7612 15.2575C19.7562 15.255 19.7512 15.2525 19.7462 15.2512C19.7437 15.2512 19.7412 15.2487 19.7375 15.2487C19.7325 15.2475 19.7275 15.245 19.7225 15.2437C19.72 15.2437 19.7162 15.2425 19.7137 15.2412C19.7087 15.2412 19.7037 15.2387 19.6987 15.2375C19.695 15.2375 19.6912 15.2375 19.6875 15.2362C19.6825 15.2362 19.6787 15.235 19.6737 15.235C19.6687 15.235 19.665 15.235 19.66 15.235C19.6575 15.235 19.6537 15.235 19.6512 15.235H18.7112C18.5712 15.235 18.4562 15.3487 18.4562 15.49V21.31C18.4562 21.45 18.57 21.565 18.7112 21.565H19.6575C19.7987 21.565 19.9125 21.4512 19.9125 21.31V17.8537L22.5787 21.455C22.5975 21.4812 22.62 21.5025 22.645 21.5187C22.645 21.5187 22.6475 21.52 22.6475 21.5212C22.6525 21.525 22.6575 21.5275 22.6637 21.5312C22.6662 21.5325 22.6687 21.5337 22.6712 21.535C22.675 21.5375 22.68 21.5387 22.6837 21.5412C22.6875 21.5437 22.6925 21.545 22.6962 21.5462C22.6987 21.5462 22.7012 21.5487 22.7037 21.5487C22.71 21.5512 22.715 21.5525 22.7212 21.5537C22.7212 21.5537 22.7237 21.5537 22.725 21.5537C22.7462 21.5587 22.7687 21.5625 22.7912 21.5625H23.7312C23.8712 21.5625 23.9862 21.4487 23.9862 21.3075V15.4875C23.9862 15.3475 23.8725 15.2325 23.7312 15.2325L23.73 15.2312Z" fill="#06C755"/>
</g>
<defs>
<clipPath id="clip0_150_2518">
<rect width="40" height="40" fill="white"/>
</clipPath>
</defs>
</svg>
