<svg width="20" height="20" viewBox="0 0 20 20" fill="none" xmlns="http://www.w3.org/2000/svg">
<path opacity="0.5" d="M17.1921 2.80814C15.6572 1.27222 13.6313 0.498888 11.62 0.500001C9.60783 0.498888 7.58234 1.27222 6.04746 2.80814C4.51145 4.34294 3.73733 6.36868 3.73956 8.37957C3.7377 9.78449 4.12402 11.1913 4.87328 12.4377L1.05721 16.2536C0.314262 16.9965 0.314262 18.1999 1.05721 18.9428C1.79942 19.6857 3.00366 19.6857 3.74587 18.9428L7.5623 15.1266C8.80847 15.8762 10.2157 16.2617 11.6196 16.2603C13.631 16.2621 15.6572 15.4884 17.1921 13.9525C18.7277 12.4177 19.5015 10.3923 19.5 8.37995C19.5022 6.36905 18.7277 4.34331 17.1921 2.80851V2.80814ZM15.0404 11.8013C14.0923 12.7487 12.8632 13.2159 11.62 13.2185C10.3768 13.2163 9.14803 12.7487 8.19875 11.8013C7.25132 10.8521 6.7841 9.62344 6.7815 8.37995C6.78373 7.13756 7.25132 5.90816 8.19875 4.95968C9.14803 4.0123 10.3768 3.54511 11.62 3.54251C12.8632 3.54474 14.0923 4.0123 15.0412 4.95968C15.9886 5.90816 16.4558 7.13756 16.4584 8.37995C16.4562 9.62382 15.9886 10.8525 15.0408 11.8013H15.0404Z" fill="#24B7AE"/>
</svg>
